# Exported from ProBuilder
# http://www.procore3d.com/probuilder
# 2/27/2018 3:17:40 PM

mtllib ./Stairs.mtl
o Stairs

g Stairs
v 17.55 -5.05 -45.45
v 12.55 -5.05 -45.44997
v 17.55 -4.8 -45.45
v 12.55 -4.8 -45.44997
v 17.55 -4.8 -45.45
v 12.55 -4.8 -45.44997
v 17.55 -4.8 -45.95
v 12.55 -4.8 -45.94997
v 17.55 -4.8 -45.95
v 12.55 -4.8 -45.94997
v 17.55 -4.55 -45.95
v 12.55 -4.55 -45.94997
v 17.55 -4.55 -45.95
v 12.55 -4.55 -45.94997
v 17.54999 -4.55 -46.45
v 12.54999 -4.55 -46.44997
v 17.54999 -4.55 -46.45
v 12.54999 -4.55 -46.44997
v 17.54999 -4.3 -46.45
v 12.54999 -4.3 -46.44997
v 17.54999 -4.3 -46.45
v 12.54999 -4.3 -46.44997
v 17.54999 -4.3 -46.95
v 12.54999 -4.3 -46.94997
v 17.54999 -4.3 -46.95
v 12.54999 -4.3 -46.94997
v 17.54999 -4.05 -46.95
v 12.54999 -4.05 -46.94997
v 17.54999 -4.05 -46.95
v 12.54999 -4.05 -46.94997
v 17.54999 -4.05 -47.45
v 12.54999 -4.05 -47.44997
v 17.54999 -4.05 -47.45
v 12.54999 -4.05 -47.44997
v 17.54999 -3.8 -47.45
v 12.54999 -3.8 -47.44997
v 17.54999 -3.8 -47.45
v 12.54999 -3.8 -47.44997
v 17.54998 -3.8 -47.95
v 12.54998 -3.8 -47.94997
v 17.54998 -3.8 -47.95
v 12.54998 -3.8 -47.94997
v 17.54998 -3.55 -47.95
v 12.54998 -3.55 -47.94997
v 17.54998 -3.55 -47.95
v 12.54998 -3.55 -47.94997
v 17.54998 -3.55 -48.45
v 12.54998 -3.55 -48.44997
v 17.54998 -3.55 -48.45
v 12.54998 -3.55 -48.44997
v 17.54998 -3.3 -48.45
v 12.54998 -3.3 -48.44997
v 17.54998 -3.3 -48.45
v 12.54998 -3.3 -48.44997
v 17.54998 -3.3 -48.95
v 12.54998 -3.3 -48.94997
v 17.54998 -3.3 -48.95
v 12.54998 -3.3 -48.94997
v 17.54998 -3.05 -48.95
v 12.54998 -3.05 -48.94997
v 17.54998 -3.05 -48.95
v 12.54998 -3.05 -48.94997
v 17.54998 -3.05 -49.45
v 12.54998 -3.05 -49.44997
v 17.54998 -3.05 -49.45
v 12.54998 -3.05 -49.44997
v 17.54998 -2.8 -49.45
v 12.54998 -2.8 -49.44997
v 17.54998 -2.8 -49.45
v 12.54998 -2.8 -49.44997
v 17.54997 -2.8 -49.95
v 12.54997 -2.8 -49.94997
v 17.54997 -2.8 -49.95
v 12.54997 -2.8 -49.94997
v 17.54997 -2.55 -49.95
v 12.54997 -2.55 -49.94997
v 17.55 -5.05 -45.45
v 12.55 -5.05 -45.44997
v 17.55 -5.05 -44.95
v 12.55 -5.05 -44.94997

vn 5.900859E-06 0 1
vn 5.900859E-06 0 1
vn 5.900859E-06 0 1
vn 5.900859E-06 0 1
vn 0 1 0
vn 0 1 0
vn 0 1 0
vn 0 1 0
vn 5.900859E-06 0 1
vn 5.900859E-06 0 1
vn 5.900859E-06 0 1
vn 5.900859E-06 0 1
vn 0 1 0
vn 0 1 0
vn 0 1 0
vn 0 1 0
vn 5.900859E-06 0 1
vn 5.900859E-06 0 1
vn 5.900859E-06 0 1
vn 5.900859E-06 0 1
vn 0 1 0
vn 0 1 0
vn 0 1 0
vn 0 1 0
vn 5.900859E-06 0 1
vn 5.900859E-06 0 1
vn 5.900859E-06 0 1
vn 5.900859E-06 0 1
vn 0 1 0
vn 0 1 0
vn 0 1 0
vn 0 1 0
vn 5.900859E-06 0 1
vn 5.900859E-06 0 1
vn 5.900859E-06 0 1
vn 5.900859E-06 0 1
vn 0 1 0
vn 0 1 0
vn 0 1 0
vn 0 1 0
vn 5.900859E-06 0 1
vn 5.900859E-06 0 1
vn 5.900859E-06 0 1
vn 5.900859E-06 0 1
vn 0 1 0
vn 0 1 0
vn 0 1 0
vn 0 1 0
vn 5.900859E-06 0 1
vn 5.900859E-06 0 1
vn 5.900859E-06 0 1
vn 5.900859E-06 0 1
vn 0 1 0
vn 0 1 0
vn 0 1 0
vn 0 1 0
vn 5.900859E-06 0 1
vn 5.900859E-06 0 1
vn 5.900859E-06 0 1
vn 5.900859E-06 0 1
vn 0 1 0
vn 0 1 0
vn 0 1 0
vn 0 1 0
vn 5.900859E-06 0 1
vn 5.900859E-06 0 1
vn 5.900859E-06 0 1
vn 5.900859E-06 0 1
vn 0 1 0
vn 0 1 0
vn 0 1 0
vn 0 1 0
vn 5.900859E-06 0 1
vn 5.900859E-06 0 1
vn 5.900859E-06 0 1
vn 5.900859E-06 0 1
vn 0 1 0
vn 0 1 0
vn 0 1 0
vn 0 1 0

vt 1 0.1
vt 0 0.1
vt 1 0.15
vt 0 0.15
vt 1 0.1
vt 0 0.1
vt 1 0.2
vt 0 0.2
vt 1 0.15
vt 0 0.15
vt 1 0.2
vt 0 0.2
vt 1 0.2
vt 0 0.2
vt 1 0.3
vt 0 0.3
vt 1 0.2
vt 0 0.2
vt 1 0.25
vt 0 0.25
vt 1 0.3
vt 0 0.3
vt 1 0.4
vt 0 0.4
vt 1 0.25
vt 0 0.25
vt 1 0.3
vt 0 0.3
vt 1 0.4
vt 0 0.4
vt 1 0.5
vt 0 0.5
vt 1 0.3
vt 0 0.3
vt 1 0.35
vt 0 0.35
vt 1 0.5
vt 0 0.5
vt 1 0.6
vt 0 0.6
vt 1 0.35
vt 0 0.35
vt 1 0.4
vt 0 0.4
vt 1 0.6
vt 0 0.6
vt 1 0.7
vt 0 0.7
vt 1 0.4
vt 0 0.4
vt 1 0.45
vt 0 0.45
vt 1 0.7
vt 0 0.7
vt 1 0.8
vt 0 0.8
vt 1 0.45
vt 0 0.45
vt 1 0.5
vt 0 0.5
vt 1 0.8
vt 0 0.8
vt 1 0.9
vt 0 0.9
vt 1 0.5
vt 0 0.5
vt 1 0.55
vt 0 0.55
vt 1 0.9
vt 0 0.9
vt 1 1
vt 0 1
vt 1 0.55
vt 0 0.55
vt 1 0.6
vt 0 0.6
vt 1 0.1
vt 0 0.1
vt 1 0
vt 0 0

g Stairs
usemtl Floor_Material
f 3/3/3 4/4/4 2/2/2 1/1/1
f 7/7/7 8/8/8 6/6/6 5/5/5
f 11/11/11 12/12/12 10/10/10 9/9/9
f 15/15/15 16/16/16 14/14/14 13/13/13
f 19/19/19 20/20/20 18/18/18 17/17/17
f 23/23/23 24/24/24 22/22/22 21/21/21
f 27/27/27 28/28/28 26/26/26 25/25/25
f 31/31/31 32/32/32 30/30/30 29/29/29
f 35/35/35 36/36/36 34/34/34 33/33/33
f 39/39/39 40/40/40 38/38/38 37/37/37
f 43/43/43 44/44/44 42/42/42 41/41/41
f 47/47/47 48/48/48 46/46/46 45/45/45
f 51/51/51 52/52/52 50/50/50 49/49/49
f 55/55/55 56/56/56 54/54/54 53/53/53
f 59/59/59 60/60/60 58/58/58 57/57/57
f 63/63/63 64/64/64 62/62/62 61/61/61
f 67/67/67 68/68/68 66/66/66 65/65/65
f 71/71/71 72/72/72 70/70/70 69/69/69
f 75/75/75 76/76/76 74/74/74 73/73/73
f 80/80/80 79/79/79 77/77/77 78/78/78

